<?xml version="1.0" encoding="UTF-8" standalone="no"?>
<svg viewBox="0 0 200 200" xmlns="http://www.w3.org/2000/svg">
  <!-- Continuous improvement visualization -->
  
  <!-- Base circular elements representing expanding applications -->
  <circle cx="100" cy="100" r="60" fill="none" stroke="#555555" stroke-width="1.5" />
  <circle cx="100" cy="100" r="45" fill="none" stroke="#555555" stroke-width="2" />
  <circle cx="100" cy="100" r="30" fill="none" stroke="#555555" stroke-width="2.5" />
  <circle cx="100" cy="100" r="15" fill="#333333" />
  
  <!-- Upward trending graph -->
  <polyline points="50,130 80,110 100,90 120,80 150,60" 
           stroke="#f46e07" stroke-width="3" fill="none" stroke-linecap="round" stroke-linejoin="round" />
  
  <!-- Research nodes/points -->
  <circle cx="50" cy="130" r="4" fill="#f46e07" />
  <circle cx="80" cy="110" r="4" fill="#f46e07" />
  <circle cx="100" cy="90" r="4" fill="#f46e07" />
  <circle cx="120" cy="80" r="4" fill="#f46e07" />
  <circle cx="150" cy="60" r="4" fill="#f46e07" />
  
  <!-- Expansion rays from center -->
  <path d="M100 100 L160 70" stroke="#777777" stroke-width="1" stroke-dasharray="2,2" />
  <path d="M100 100 L170 100" stroke="#777777" stroke-width="1" stroke-dasharray="2,2" />
  <path d="M100 100 L150 150" stroke="#777777" stroke-width="1" stroke-dasharray="2,2" />
  <path d="M100 100 L100 170" stroke="#777777" stroke-width="1" stroke-dasharray="2,2" />
  <path d="M100 100 L50 150" stroke="#777777" stroke-width="1" stroke-dasharray="2,2" />
  <path d="M100 100 L30 100" stroke="#777777" stroke-width="1" stroke-dasharray="2,2" />
  <path d="M100 100 L50 50" stroke="#777777" stroke-width="1" stroke-dasharray="2,2" />
  <path d="M100 100 L100 30" stroke="#777777" stroke-width="1" stroke-dasharray="2,2" />
  
  <!-- Small indicators at ray endpoints -->
  <circle cx="160" cy="70" r="3" fill="#555555" />
  <circle cx="170" cy="100" r="3" fill="#555555" />
  <circle cx="150" cy="150" r="3" fill="#555555" />
  <circle cx="100" cy="170" r="3" fill="#555555" />
  <circle cx="50" cy="150" r="3" fill="#555555" />
  <circle cx="30" cy="100" r="3" fill="#555555" />
  <circle cx="50" cy="50" r="3" fill="#555555" />
  <circle cx="100" cy="30" r="3" fill="#555555" />
  
  <!-- Orange accent elements -->
  <path d="M100 15 L100 5 L105 10 Z" fill="#f46e07" />
  <path d="M155 100 L165 100 L160 105 Z" fill="#f46e07" />
  

</svg>