<?xml version="1.0" encoding="UTF-8" standalone="no"?>
<svg viewBox="0 0 200 200" xmlns="http://www.w3.org/2000/svg">
  <!-- Integration Platform Visualization -->
  <rect x="30" y="60" width="40" height="40" rx="5" fill="#555555" />
  <rect x="130" y="60" width="40" height="40" rx="5" fill="#555555" />
  
  <!-- Central algorithm processing unit -->
  <circle cx="100" cy="100" r="30" fill="#333333" />
  <circle cx="100" cy="100" r="25" fill="#444444" />
  
  <!-- Orange accent border around algorithm -->
  <circle cx="100" cy="100" r="30" fill="none" stroke="#f46e07" stroke-width="2" />
  
  <!-- Connection lines -->
  <path d="M70 80 L85 80" stroke="#777777" stroke-width="2" />
  <path d="M70 80 L85 80" stroke="#777777" stroke-width="2" />
  <path d="M115 80 L130 80" stroke="#777777" stroke-width="2" />
  <path d="M115 120 L130 120" stroke="#777777" stroke-width="2" />
  <path d="M70 120 L85 120" stroke="#777777" stroke-width="2" />
  
  <!-- Data flow arrows -->
  <path d="M82 75 L90 75 L86 80 Z" fill="#f46e07" />
  <path d="M110 75 L118 75 L114 80 Z" fill="#f46e07" />
  <path d="M118 125 L110 125 L114 120 Z" fill="#f46e07" />
  <path d="M90 125 L82 125 L86 120 Z" fill="#f46e07" />
  
  <!-- Data symbols in left box (input) -->
  <rect x="35" y="70" width="30" height="5" rx="1" fill="#dddddd" />
  <rect x="35" y="80" width="20" height="5" rx="1" fill="#dddddd" />
  <rect x="35" y="90" width="25" height="5" rx="1" fill="#dddddd" />
  
  <!-- Schedule symbols in right box (output) -->
  <rect x="135" y="70" width="30" height="5" rx="1" fill="#dddddd" />
  <rect x="135" y="80" width="30" height="5" rx="1" fill="#dddddd" />
  <rect x="135" y="90" width="30" height="5" rx="1" fill="#dddddd" />
  <path d="M140 78 L140 82 M150 78 L150 82 M160 78 L160 82" stroke="#f46e07" stroke-width="1" />
  

</svg>